<?xml version="1.0" encoding="utf-8"?>
<!-- Generator: Adobe Illustrator 21.1.0, SVG Export Plug-In . SVG Version: 6.00 Build 0)  -->
<svg version="1.1" id="Layer_1" xmlns="http://www.w3.org/2000/svg" xmlns:xlink="http://www.w3.org/1999/xlink" x="0px" y="0px"
	 width="80px" height="56px" viewBox="0 0 80 56" enable-background="new 0 0 80 56" xml:space="preserve">
<g>
	<path fill="#666766" d="M17,37.9c0.6-1.6,1.8-2.7,3.3-3.2c1.9-0.6,4.6-1.4,6.8-2.1c-0.5-0.1-0.9-0.2-0.9-0.2c0,0.1,0,0,0,0
		s-1.1-0.1-1.8-1.1c-0.6-1-0.2-1.9,0.2-2.6c0.1-0.1,0.1-0.2,0.2-0.3c0.2-0.3,1.1-1.9,1.3-3.9c1.4-1.2,1.8-2.7,1.5-4.2
		c-0.1-0.2-0.1-0.4-0.2-0.6c0.2-0.8,0.2-2.1,0-3c0.1-1.5-0.8-3.9-2.1-4.6c-0.3-1.8-2.7-3-6.3-3c-4.2,0-8.2,3-8.2,7.6
		c-0.2,0.9-0.1,2.2,0.1,3.1c-0.1,0.2-0.1,0.3-0.2,0.6c-0.3,1.4,0.1,3,1.5,4.2c0.2,1.9,1.1,3.6,1.3,3.9c0.1,0.1,0.2,0.3,0.3,0.5
		c0.3,0.8,0.5,1.4,0,2.5c-0.5,1.1-1.8,1.1-1.8,1.1s-6.2,1.7-9.7,2.8c-0.6,0.2-1,0.5-1.2,1.2c-0.4,0.6-0.9,5.1-1.2,8.1h15.8
		C16.3,40.4,16.6,38.8,17,37.9z"/>
	<path fill="#666766" d="M52.9,32.3c2.5,0.7,6,1.7,8.5,2.5c1.5,0.5,2.7,1.6,3.3,3.2c0.4,0.9,0.7,2.5,1.2,6.6H80
		c-0.4-2.9-1-5.5-1.4-6.8c-0.3-1.1-0.6-2-0.9-2.3c-0.7-0.7-2.9-1.4-5.1-2.1c-5.2-3.7,1.4-15.5-4.6-21.5c-0.9-1.1-2.8-2-4.5-2.1
		c-6.3,0-8.6,3.4-9.4,6.9C53,21.8,56.8,27.3,52.9,32.3z M57.3,23.5c2.1-3.1,7.4-2.8,8.7-7.6c0.1-0.1,0.1-0.2,0.2-0.2
		c0.3,0.1,0.6,0.4,0.8,0.9c1.1,3.3,1,5.9,0.9,7.1c-0.2,1.7-0.7,3-1.7,4.1c-2.1,2.1-2.2,2-3.5,2l0,0l0,0c-1.3,0-1.4,0.1-3.5-2
		C57.9,26.5,57.4,25.2,57.3,23.5L57.3,23.5z"/>
	<path fill="#666766" d="M42.6,48.5h20.5c-0.4-3.4-0.9-8.6-1.4-9.4c-0.3-0.7-0.7-1.1-1.4-1.4C56.2,36.4,49,34.5,49,34.5
		c0,0.1,0,0,0,0s-1.3-0.1-2.1-1.3c-0.7-1.2-0.2-2.2,0.2-3.1c0.1-0.1,0.2-0.2,0.2-0.3c0.2-0.3,1.3-2.2,1.5-4.5
		c1.7-1.4,2.1-3.2,1.8-4.8c-0.1-0.2-0.1-0.5-0.2-0.7c0.2-0.9,0.2-2.5,0-3.5c0.2-1.8-0.9-4.5-2.4-5.3c-0.3-2.1-3.1-3.5-7.3-3.5
		c-5,0-9.5,3.5-9.5,8.9c-0.2,1-0.2,2.6,0.1,3.5C31.1,20,31,20.3,31,20.5c-0.3,1.6,0.1,3.4,1.8,4.8c0.2,2.3,1.4,4.2,1.5,4.5
		c0.1,0.1,0.2,0.3,0.3,0.5c0.3,0.9,0.6,1.7,0,2.9c-0.6,1.3-2.1,1.3-2.1,1.3s-7.2,1.9-11.3,3.3c-0.6,0.2-1.1,0.6-1.4,1.4
		c-0.5,0.8-1,6-1.4,9.4H39H42.6z"/>
</g>
</svg>
